<?xml version="1.0" encoding="utf-8"?>
<!-- Generator: Adobe Illustrator 16.0.0, SVG Export Plug-In . SVG Version: 6.00 Build 0)  -->
<!DOCTYPE svg PUBLIC "-//W3C//DTD SVG 1.1//EN" "http://www.w3.org/Graphics/SVG/1.1/DTD/svg11.dtd">
<svg version="1.1" id="Capa_1" xmlns="http://www.w3.org/2000/svg" xmlns:xlink="http://www.w3.org/1999/xlink" x="0px" y="0px"
	 width="676.465px" height="197.99px" viewBox="0 0 676.465 197.99" enable-background="new 0 0 676.465 197.99"
	 xml:space="preserve">
<rect x="187.57" y="18.409" fill="#EAB207" stroke="#010202" stroke-width="2" stroke-miterlimit="10" width="475.294" height="164.191"/>
<g>
	<path fill="#010202" stroke="#010202" stroke-miterlimit="10" d="M217.861,51.886h9.146l11.432,27.239l11.536-27.239h9.14
		l8.273,39.053h-9.078l-5.288-24.664l-10.477,24.664h-8.273L223.89,66.275l-5.415,24.664h-9.152L217.861,51.886z"/>
	<path fill="#010202" stroke="#010202" stroke-miterlimit="10" d="M274.194,51.886h9.32v39.053h-9.32V51.886z"/>
	<path fill="#010202" stroke="#010202" stroke-miterlimit="10" d="M294.109,51.886h9.004l21.101,25.699V51.886h9.387v39.053h-9.029
		L303.495,65.32v25.619h-9.387L294.109,51.886L294.109,51.886z"/>
	<path fill="#010202" stroke="#010202" stroke-miterlimit="10" d="M390.393,58.257l-6.609,5.177
		c-4.184-3.504-9.061-5.257-14.629-5.257c-4.855,0-8.922,1.274-12.197,3.823c-3.277,2.548-4.916,5.646-4.916,9.292
		c0,3.77,1.699,6.964,5.102,9.583c3.4,2.62,7.596,3.929,12.586,3.929c3.242,0,5.979-0.54,8.205-1.619s4.021-2.77,5.387-5.071H369.04
		v-6.982h24.809l0.066,1.646c0,3.416-1.117,6.655-3.352,9.717c-2.236,3.062-5.131,5.398-8.684,7.009
		c-3.555,1.611-7.723,2.416-12.506,2.416c-5.119,0-9.684-0.881-13.695-2.642c-4.012-1.761-7.186-4.27-9.52-7.526
		c-2.336-3.256-3.504-6.77-3.504-10.54c0-5.167,2.156-9.664,6.471-13.486c5.117-4.548,11.777-6.823,19.98-6.823
		c4.291,0,8.303,0.628,12.035,1.885C384.292,53.851,387.375,55.674,390.393,58.257z"/>
	<path fill="#010202" stroke="#010202" stroke-miterlimit="10" d="M402.563,51.886h26.922v7.274h-17.602v7.062h17.602v7.141h-17.602
		v10.274h17.602v7.301h-26.922V51.886z"/>
	<path fill="#010202" stroke="#010202" stroke-miterlimit="10" d="M438.268,51.886h9.006l21.1,25.699V51.886h9.387v39.053h-9.029
		L447.657,65.32v25.619h-9.389V51.886L438.268,51.886z"/>
	<path fill="#010202" stroke="#010202" stroke-miterlimit="10" d="M488.356,51.886h9.318v39.053h-9.318V51.886z"/>
	<path fill="#010202" stroke="#010202" stroke-miterlimit="10" d="M508.268,51.886h26.922v7.274h-17.602v7.062h17.602v7.141h-17.602
		v10.274h17.602v7.301h-26.922V51.886z"/>
	<path fill="#010202" stroke="#010202" stroke-miterlimit="10" d="M544.577,51.886h9.945c5.445,0,9.326,0.385,11.637,1.155
		s4.17,2.048,5.576,3.836c1.404,1.788,2.109,3.903,2.109,6.345c0,2.566-0.777,4.712-2.33,6.438
		c-1.555,1.726-3.895,3.031-7.021,3.916l11.682,17.363h-10.262l-11.09-16.54h-0.859v16.54h-9.387V51.886L544.577,51.886z
		 M553.963,67.151h2.941c2.984,0,5.041-0.311,6.166-0.932c1.125-0.622,1.688-1.651,1.688-3.09c0-0.852-0.277-1.593-0.836-2.224
		c-0.557-0.63-1.303-1.083-2.238-1.358s-2.65-0.413-5.146-0.413h-2.574V67.151L553.963,67.151z"/>
	<path fill="#010202" stroke="#010202" stroke-miterlimit="10" d="M583.096,51.886h9.32v39.053h-9.32V51.886z"/>
	<path fill="#010202" stroke="#010202" stroke-miterlimit="10" d="M618.024,51.886h9.52l18.967,39.053h-9.756l-3.857-8.044h-20.123
		l-4.014,8.044h-9.756L618.024,51.886z M622.84,62.24l-6.615,13.407h13.193L622.84,62.24z"/>
</g>
<rect x="199.669" y="29.725" fill="#010202" width="454.552" height="10.208"/>
<rect x="199.669" y="100.586" fill="#010202" width="454.552" height="10.208"/>
<rect x="311.579" y="116.925" fill="#010202" width="341.347" height="55.307"/>
<g>
	<path fill="#FFFFFF" d="M339.133,134.771h16.807v4.871h-10.521v3.627h9.76v4.651h-9.76v4.498h10.824v5.166h-17.109V134.771z"/>
	<path fill="#FFFFFF" d="M359.665,134.771h5.854l7.643,12.621v-12.621h5.91v22.813h-5.91l-7.602-12.526v12.526h-5.895V134.771z"/>
	<path fill="#FFFFFF" d="M383.223,134.771h16.805v4.871h-10.521v3.627h9.76v4.651h-9.76v4.498h10.826v5.166h-17.109V134.771z"/>
	<path fill="#FFFFFF" d="M403.793,157.585v-22.812h10.451c1.938,0,3.42,0.187,4.443,0.561c1.023,0.373,1.85,1.066,2.479,2.077
		c0.627,1.012,0.941,2.243,0.941,3.696c0,1.266-0.24,2.356-0.723,3.274c-0.479,0.918-1.141,1.663-1.979,2.233
		c-0.535,0.363-1.271,0.664-2.203,0.902c0.748,0.279,1.291,0.561,1.633,0.84c0.23,0.188,0.564,0.588,1.002,1.199
		c0.439,0.613,0.732,1.086,0.879,1.418l3.037,6.61h-7.086l-3.352-6.972c-0.426-0.902-0.803-1.488-1.137-1.76
		c-0.451-0.353-0.963-0.527-1.535-0.527h-0.555v9.259L403.793,157.585L403.793,157.585z M410.092,144.017h2.645
		c0.285,0,0.84-0.104,1.66-0.312c0.416-0.094,0.756-0.332,1.018-0.717c0.264-0.383,0.395-0.824,0.395-1.322
		c0-0.736-0.205-1.303-0.621-1.696s-1.195-0.591-2.34-0.591h-2.756V144.017L410.092,144.017z"/>
	<path fill="#FFFFFF" d="M435.452,149.321v-4.746h9.689v9.727c-1.854,1.422-3.494,2.389-4.922,2.902
		c-1.426,0.513-3.115,0.77-5.072,0.77c-2.408,0-4.371-0.461-5.891-1.385c-1.518-0.923-2.695-2.298-3.529-4.124
		c-0.836-1.825-1.254-3.921-1.254-6.286c0-2.49,0.457-4.656,1.371-6.496c0.914-1.843,2.252-3.24,4.016-4.194
		c1.375-0.736,3.225-1.104,5.551-1.104c2.242,0,3.92,0.229,5.031,0.686s2.035,1.164,2.77,2.123c0.734,0.961,1.285,2.177,1.654,3.649
		l-6.049,1.214c-0.25-0.861-0.674-1.52-1.268-1.977c-0.596-0.456-1.354-0.686-2.277-0.686c-1.375,0-2.471,0.537-3.287,1.61
		c-0.816,1.074-1.227,2.772-1.227,5.097c0,2.469,0.414,4.232,1.24,5.291c0.824,1.059,1.977,1.588,3.453,1.588
		c0.701,0,1.369-0.114,2.008-0.342c0.637-0.229,1.365-0.617,2.188-1.168v-2.147L435.452,149.321L435.452,149.321z"/>
	<path fill="#FFFFFF" d="M446.817,134.771h6.967l4.088,7.696l4.098-7.696h6.928l-7.891,13.26v9.555h-6.285v-9.555L446.817,134.771z"
		/>
	<path fill="#FFFFFF" d="M479.278,150.037l5.967-0.42c0.129,1.09,0.393,1.92,0.789,2.489c0.646,0.924,1.568,1.386,2.77,1.386
		c0.895,0,1.584-0.235,2.068-0.708s0.727-1.02,0.727-1.643c0-0.592-0.229-1.119-0.691-1.588c-0.461-0.467-1.531-0.906-3.211-1.322
		c-2.75-0.694-4.711-1.617-5.883-2.77c-1.182-1.152-1.771-2.62-1.771-4.404c0-1.172,0.301-2.279,0.906-3.322
		c0.604-1.043,1.514-1.861,2.727-2.459c1.213-0.596,2.877-0.895,4.99-0.895c2.594,0,4.57,0.542,5.932,1.626
		c1.363,1.084,2.172,2.81,2.432,5.175l-5.912,0.389c-0.156-1.026-0.486-1.773-0.99-2.24c-0.502-0.467-1.197-0.7-2.082-0.7
		c-0.729,0-1.279,0.175-1.646,0.521c-0.369,0.348-0.555,0.771-0.555,1.27c0,0.363,0.152,0.689,0.457,0.979
		c0.295,0.303,0.996,0.582,2.104,0.842c2.74,0.664,4.705,1.336,5.891,2.016s2.049,1.521,2.588,2.528
		c0.541,1.007,0.811,2.132,0.811,3.377c0,1.463-0.359,2.812-1.08,4.046s-1.727,2.171-3.018,2.809
		c-1.293,0.64-2.922,0.957-4.887,0.957c-3.451,0-5.842-0.746-7.17-2.24C480.206,154.239,479.454,152.341,479.278,150.037z"/>
	<path fill="#FFFFFF" d="M500.831,134.771h16.805v4.871h-10.52v3.627h9.76v4.651h-9.76v4.498h10.824v5.166h-17.109V134.771z"/>
	<path fill="#FFFFFF" d="M521.401,157.585v-22.812h10.451c1.938,0,3.42,0.187,4.443,0.561c1.023,0.373,1.85,1.066,2.479,2.077
		c0.627,1.012,0.941,2.243,0.941,3.696c0,1.266-0.24,2.356-0.721,3.274s-1.143,1.663-1.98,2.233
		c-0.535,0.363-1.27,0.664-2.203,0.902c0.748,0.279,1.291,0.561,1.633,0.84c0.23,0.188,0.564,0.588,1.004,1.199
		c0.438,0.613,0.73,1.086,0.879,1.418l3.037,6.61h-7.086l-3.354-6.972c-0.424-0.902-0.803-1.488-1.135-1.76
		c-0.453-0.353-0.965-0.527-1.537-0.527H527.7v9.259L521.401,157.585L521.401,157.585z M527.7,144.017h2.645
		c0.285,0,0.84-0.104,1.66-0.312c0.416-0.094,0.756-0.332,1.02-0.717c0.262-0.383,0.395-0.824,0.395-1.322
		c0-0.736-0.207-1.303-0.623-1.696s-1.195-0.591-2.34-0.591H527.7V144.017z"/>
	<path fill="#FFFFFF" d="M540.891,134.771h6.557l4.566,16.418l4.51-16.418h6.363l-7.533,22.813h-6.799L540.891,134.771z"/>
	<path fill="#FFFFFF" d="M565.184,134.771h6.285v22.813h-6.285V134.771z"/>
	<path fill="#FFFFFF" d="M589.481,148.248l5.494,1.867c-0.369,1.731-0.949,3.18-1.744,4.342c-0.793,1.162-1.777,2.039-2.955,2.63
		c-1.178,0.592-2.674,0.887-4.492,0.887c-2.205,0-4.006-0.359-5.404-1.08s-2.604-1.988-3.621-3.803
		c-1.014-1.814-1.521-4.137-1.521-6.967c0-3.773,0.893-6.674,2.68-8.701c1.785-2.027,4.311-3.04,7.578-3.04
		c2.557,0,4.564,0.581,6.029,1.743c1.461,1.162,2.549,2.947,3.26,5.354l-5.537,1.385c-0.193-0.694-0.396-1.203-0.609-1.524
		c-0.352-0.54-0.779-0.955-1.287-1.245c-0.508-0.289-1.074-0.436-1.701-0.436c-1.424,0-2.512,0.643-3.27,1.927
		c-0.572,0.954-0.857,2.451-0.857,4.492c0,2.528,0.342,4.262,1.023,5.198c0.686,0.938,1.645,1.406,2.881,1.406
		c1.199,0,2.105-0.377,2.719-1.136C588.756,150.79,589.204,149.69,589.481,148.248z"/>
	<path fill="#FFFFFF" d="M598.006,134.771h16.807v4.871h-10.521v3.627h9.76v4.651h-9.76v4.498h10.824v5.166h-17.109V134.771z"/>
</g>
<rect x="15.601" y="16.681" fill="#010202" width="165.921" height="165.919"/>
<rect x="9.552" y="9.768" fill="none" stroke="#010202" stroke-width="2" stroke-miterlimit="10" width="660.226" height="179.747"/>
<g id="on">
	<g id="XMLID_142_">
		<path id="XMLID_143_" fill="#FFFFFF" d="M118.865,58.675v12.162c7.872,5.562,13.019,14.724,13.019,25.096
			c0,16.966-13.754,30.72-30.721,30.72c-16.964,0-30.72-13.754-30.72-30.72c0-10.251,5.025-19.321,12.741-24.9
			c0.185-4.161,0.385-8.326,0.556-12.488c-14.072,6.567-23.829,20.834-23.829,37.388c0,22.783,18.469,41.253,41.252,41.253
			c22.784,0,41.253-18.471,41.253-41.253C142.416,79.488,132.787,65.299,118.865,58.675z"/>
	</g>
	<g id="XMLID_139_">
		<path fill="#FFFFFF" d="M105.635,92.909c0,2.221-1.817,4.038-4.038,4.038h-2.291c-2.221,0-4.038-1.817-4.038-4.038V57.7
			c0-2.221,1.817-4.038,4.038-4.038h2.291c2.221,0,4.038,1.817,4.038,4.038V92.909z"/>
	</g>
</g>
<g>
	<path fill="#FFFFFF" d="M628.604,155.19v-8.847h4.289c0.797,0,1.402,0.072,1.824,0.218c0.42,0.145,0.76,0.412,1.018,0.806
		c0.258,0.393,0.387,0.87,0.387,1.434c0,0.49-0.1,0.914-0.295,1.271c-0.197,0.355-0.469,0.646-0.814,0.865
		c-0.219,0.143-0.52,0.258-0.902,0.352c0.307,0.107,0.529,0.218,0.67,0.326c0.094,0.072,0.23,0.228,0.412,0.465
		c0.18,0.236,0.299,0.421,0.359,0.55l1.246,2.563h-2.908l-1.377-2.703c-0.174-0.352-0.328-0.578-0.465-0.684
		c-0.186-0.137-0.396-0.205-0.631-0.205h-0.229v3.592h-2.584V155.19z M631.188,149.929h1.086c0.117,0,0.346-0.039,0.682-0.119
		c0.172-0.037,0.311-0.129,0.418-0.278c0.107-0.148,0.162-0.319,0.162-0.513c0-0.285-0.086-0.506-0.256-0.658
		s-0.49-0.229-0.961-0.229h-1.131V149.929L631.188,149.929z"/>
</g>
<ellipse fill="none" stroke="#FFFFFF" stroke-miterlimit="10" cx="632.725" cy="150.604" rx="8.498" ry="7.777"/>
</svg>
